<?xml version="1.0" encoding="utf-8"?>
<!-- Generator: Adobe Illustrator 18.1.1, SVG Export Plug-In . SVG Version: 6.00 Build 0)  -->
<svg version="1.1" id="Layer_1" xmlns="http://www.w3.org/2000/svg" xmlns:xlink="http://www.w3.org/1999/xlink" x="0px" y="0px"
	 viewBox="0 0 62.7 52.4" enable-background="new 0 0 62.7 52.4" xml:space="preserve">
<g>
	<path fill="none" stroke="#FFFFFF" stroke-miterlimit="10" d="M10.9,0.5c0.4,0.8,0.7,1.6,1.1,2.4c0.1,0.1,0.2,0.4,0.6,0.7
		c0.4,0.3,0.8,0.3,1,0.3c2,0,3.9,0,5.9,0c9.9,0,19.8,0,29.7,0c0.1,0,0.4,0,0.7-0.1c0.4-0.2,0.6-0.5,0.7-0.6c0.4-0.9,0.8-1.7,1.2-2.6
		C38.1,0.5,24.5,0.5,10.9,0.5z"/>
	<line fill="none" stroke="#FFFFFF" stroke-miterlimit="10" x1="19.4" y1="33.4" x2="19.4" y2="3.8"/>
	<line fill="none" stroke="#FFFFFF" stroke-miterlimit="10" x1="43.2" y1="33.4" x2="43.2" y2="4.1"/>
	<path fill="none" stroke="#FFFFFF" stroke-linecap="round" stroke-miterlimit="10" d="M6.5,51.4c1.3-2.3,2.7-4.5,4-6.8"/>
	<path fill="none" stroke="#FFFFFF" stroke-linecap="round" stroke-miterlimit="10" d="M14.7,51.5c0.9-2.3,1.8-4.6,2.7-6.9"/>
	<path fill="none" stroke="#FFFFFF" stroke-linecap="round" stroke-miterlimit="10" d="M22.8,51.8c0.4-2.4,0.9-4.8,1.3-7.1"/>
	<path fill="none" stroke="#FFFFFF" stroke-linecap="round" stroke-miterlimit="10" d="M30.9,51.9c0-2.4,0-4.9,0-7.3"/>
	<path fill="none" stroke="#FFFFFF" stroke-linecap="round" stroke-miterlimit="10" d="M39.1,51.8c-0.5-2.4-1-4.8-1.5-7.2"/>
	<path fill="none" stroke="#FFFFFF" stroke-linecap="round" stroke-miterlimit="10" d="M47.3,51.6c-1-2.3-1.9-4.6-2.9-6.9"/>
	<path fill="none" stroke="#FFFFFF" stroke-linecap="round" stroke-miterlimit="10" d="M55.4,51.4c-1.4-2.2-2.8-4.5-4.2-6.7"/>
	<rect x="0.5" y="33.4" fill="none" stroke="#FFFFFF" stroke-miterlimit="10" width="61.7" height="6.2"/>
</g>
</svg>
