<?xml version="1.0" encoding="utf-8"?>
<!-- Generator: Adobe Illustrator 18.1.1, SVG Export Plug-In . SVG Version: 6.00 Build 0)  -->
<svg version="1.1" id="Layer_1" xmlns="http://www.w3.org/2000/svg" xmlns:xlink="http://www.w3.org/1999/xlink" x="0px" y="0px"
	 viewBox="0 0 78.5 45.8" enable-background="new 0 0 78.5 45.8" xml:space="preserve">
<g>
	<path fill="none" stroke="#FFFFFF" stroke-miterlimit="10" d="M78,4.1c0-1.6-0.8-2.7-2.3-3.3c-0.6-0.2-1.3-0.3-1.9-0.3
		c-23,0-46,0-69,0c-0.2,0-0.5,0-0.7,0C2.1,0.6,0.5,2.2,0.5,4.2c0,7,0,14.1,0,21.1c0,1.1,0.4,1.9,1.2,2.6c0.9,0.8,1.9,1,3.1,1
		c11.5,0,22.9,0,34.4,0c11.4,0,22.9,0,34.3,0c0.3,0,0.6,0,1,0c2-0.1,3.6-1.7,3.6-3.6C78,18.2,78.1,11.1,78,4.1z M64.1,7.1
		c0.6,0,1.1,0,1.7,0c0.6,0,1.1,0,1.7,0c0.8,0,1.4,0.6,1.4,1.3c0,0.8-0.5,1.4-1.3,1.5c-1.2,0-2.3,0-3.5,0c-0.9,0-1.4-0.7-1.4-1.5
		C62.7,7.7,63.3,7.1,64.1,7.1z M55.5,7.1c1.1,0,2.1,0,3.2,0c0.9,0,1.5,0.6,1.5,1.4c0,0.8-0.6,1.4-1.5,1.4c-0.5,0-1.1,0-1.6,0
		c-0.5,0-1,0-1.5,0c-1,0-1.5-0.6-1.5-1.5C54,7.6,54.6,7.1,55.5,7.1z M72.1,25.3c-21.8,0-43.7,0-65.5,0c-0.9,0-1-0.1-1-1
		c0-2.5,0-4.9,0-7.4c0-0.2,0-0.4,0-0.6c22.5,0,45,0,67.5,0c0,0.2,0,0.4,0,0.6c0,2.5,0,5,0,7.4C73.1,25.2,73,25.3,72.1,25.3z"/>
	<path fill="none" stroke="#FFFFFF" stroke-linecap="round" stroke-miterlimit="10" d="M18.9,33.2c0.3,0.2,0.9,0.5,1.4,1.1
		c0.2,0.3,0.8,1.1,0.8,2.2c0,0.2,0,0.9-0.4,1.6c-0.3,0.5-0.5,0.6-1.3,1.5c-0.4,0.5-0.6,0.8-0.8,1.1c-0.3,0.8-0.2,1.5-0.2,1.7
		c0.2,1.8,2,2.8,2.2,2.9"/>
	<path fill="none" stroke="#FFFFFF" stroke-linecap="round" stroke-miterlimit="10" d="M31.3,33.2c0.3,0.2,0.9,0.5,1.4,1.1
		c0.2,0.3,0.8,1.1,0.8,2.2c0,0.2,0,0.9-0.4,1.6c-0.3,0.5-0.5,0.6-1.3,1.5c-0.4,0.5-0.6,0.8-0.8,1.1c-0.3,0.8-0.2,1.5-0.2,1.7
		c0.2,1.8,2,2.8,2.2,2.9"/>
	<path fill="none" stroke="#FFFFFF" stroke-linecap="round" stroke-miterlimit="10" d="M45.8,33.2c0.3,0.2,0.9,0.5,1.4,1.1
		c0.2,0.3,0.8,1.1,0.8,2.2c0,0.2,0,0.9-0.4,1.6c-0.3,0.5-0.5,0.6-1.3,1.5c-0.4,0.5-0.6,0.8-0.8,1.1c-0.3,0.8-0.2,1.5-0.2,1.7
		c0.2,1.8,2,2.8,2.2,2.9"/>
	<path fill="none" stroke="#FFFFFF" stroke-linecap="round" stroke-miterlimit="10" d="M58.1,33.2c0.3,0.2,0.9,0.5,1.4,1.1
		c0.2,0.3,0.8,1.1,0.8,2.2c0,0.2,0,0.9-0.4,1.6c-0.3,0.5-0.5,0.6-1.3,1.5c-0.4,0.5-0.6,0.8-0.8,1.1c-0.3,0.8-0.2,1.5-0.2,1.7
		c0.2,1.8,2,2.8,2.2,2.9"/>
	<path fill="none" stroke="#FFFFFF" stroke-miterlimit="10" d="M68,28"/>
</g>
</svg>
