<?xml version="1.0" encoding="utf-8"?>
<!-- Generator: Adobe Illustrator 18.1.1, SVG Export Plug-In . SVG Version: 6.00 Build 0)  -->
<svg version="1.1" id="Layer_1" xmlns="http://www.w3.org/2000/svg" xmlns:xlink="http://www.w3.org/1999/xlink" x="0px" y="0px"
	 viewBox="0 0 72.9 53.9" enable-background="new 0 0 72.9 53.9" xml:space="preserve">
<path fill="none" stroke="#FFFFFF" stroke-miterlimit="10" d="M72.4,0.7c0,17.5,0,35,0,52.6c-0.7-0.2-1.4-0.5-2.1-0.7
	c-6.6-2.2-13.3-4.4-19.9-6.6c-0.3-0.1-0.6-0.1-0.9-0.1c-8.7,0-17.4,0-26.1,0c-0.3,0-0.6,0.1-0.9,0.2C15.4,48.3,8.3,50.6,1.2,53
	c-0.2,0.1-0.4,0.1-0.7,0.2c0-17.5,0-35,0-52.6c0.2,0.1,0.4,0.1,0.6,0.2c7.1,2.4,14.2,4.7,21.3,7.1c0.3,0.1,0.7,0.2,1.1,0.2
	c8.7,0,17.3,0,26,0c0.4,0,0.7-0.1,1-0.2c7.1-2.4,14.2-4.7,21.3-7.1C72,0.8,72.2,0.7,72.4,0.7z M50.1,40.6c0-9.1,0-18.2,0-27.4
	c-9.1,0-18.2,0-27.4,0c0,9.1,0,18.2,0,27.4C31.9,40.6,41,40.6,50.1,40.6z M10.6,25.2c0-0.1,0-0.1,0-0.2c0-5.1,0-10.2,0-15.3
	c0-0.2-0.2-0.4-0.4-0.5c-1.4-0.5-2.9-1-4.4-1.5c-0.1,0-0.2,0-0.4-0.1c0,5.8,0,11.6,0,17.4C7.2,25.2,8.9,25.2,10.6,25.2z M62.2,25.1
	c1.8,0,3.4,0,5.1,0c0-5.8,0-11.6,0-17.4c-0.2,0-0.3,0.1-0.4,0.1c-1.3,0.4-2.6,0.9-3.9,1.3c-0.6,0.2-0.8,0.5-0.8,1.1
	c0,4.8,0,9.5,0,14.3C62.2,24.7,62.2,24.9,62.2,25.1z M5.5,28.7c0,5.8,0,11.6,0,17.4C5.8,46.1,6,46,6.2,46c1.3-0.4,2.6-0.9,3.9-1.3
	c0.4-0.1,0.6-0.3,0.6-0.8c0-4.9,0-9.7,0-14.6c0-0.2,0-0.4,0-0.6C8.9,28.7,7.2,28.7,5.5,28.7z M62.3,28.7c0,0.1,0,0.1,0,0.1
	c0,5.1,0,10.2,0,15.3c0,0.2,0.2,0.4,0.4,0.5c1.4,0.5,2.8,0.9,4.2,1.4c0.1,0,0.3,0.1,0.5,0.1c0-5.8,0-11.6,0-17.4
	C65.6,28.7,64,28.7,62.3,28.7z M14.2,10.5c0,4.9,0,9.8,0,14.6c1.7,0,3.4,0,5,0c0-0.1,0.1-0.1,0.1-0.2c0-4.1,0-8.3,0-12.4
	c0-0.1-0.1-0.3-0.3-0.4C17.4,11.6,15.8,11.1,14.2,10.5z M58.7,10.5c-1.6,0.5-3,1-4.5,1.5c-0.4,0.1-0.6,0.4-0.6,0.8
	c0,3.9,0,7.8,0,11.7c0,0.2,0,0.4,0,0.6c1.7,0,3.4,0,5.1,0C58.7,20.3,58.7,15.5,58.7,10.5z M14.2,43.3c1.6-0.5,3-1,4.5-1.5
	c0.4-0.1,0.6-0.4,0.6-0.8c0-3.9,0-7.8,0-11.7c0-0.2,0-0.4,0-0.6c-1.7,0-3.4,0-5.1,0C14.2,33.6,14.2,38.4,14.2,43.3z M53.6,28.7
	c0,0.3,0,0.5,0,0.8c0,3.8,0,7.5,0,11.3c0,0.7,0.2,1,0.8,1.2c1.4,0.4,2.8,0.9,4.3,1.4c0-4.9,0-9.7,0-14.6
	C57,28.7,55.4,28.7,53.6,28.7z"/>
</svg>
