<?xml version="1.0" encoding="utf-8"?>
<!-- Generator: Adobe Illustrator 18.1.1, SVG Export Plug-In . SVG Version: 6.00 Build 0)  -->
<svg version="1.1" id="Layer_1" xmlns="http://www.w3.org/2000/svg" xmlns:xlink="http://www.w3.org/1999/xlink" x="0px" y="0px"
	 viewBox="0 0 61.1 61.1" enable-background="new 0 0 61.1 61.1" xml:space="preserve">
<g>
	<g>
		<g>
			<path fill="none" stroke="#FFFFFF" stroke-miterlimit="10" d="M60.6,46.2c0,4.4,0,8.8,0,13.2c0,0.9-0.2,1.1-1.1,1.1
				c-8.8,0-17.7,0-26.5,0c-0.8,0-1.1-0.3-1.1-1.1c0-8.8,0-17.7,0-26.5c0-0.8,0.3-1.1,1.1-1.1c8.8,0,17.7,0,26.5,0
				c0.8,0,1.1,0.2,1.1,1.1C60.6,37.4,60.6,41.8,60.6,46.2z M37.1,55.4c6.1,0,12.2,0,18.3,0c0-4.4,0-8.9,0-13.3c-6.1,0-12.2,0-18.3,0
				C37.1,46.5,37.1,50.9,37.1,55.4z"/>
			<path fill="none" stroke="#FFFFFF" stroke-miterlimit="10" d="M46.3,16.4c-4.4,0-8.8,0-13.2,0c-0.9,0-1.3-0.4-1.3-1.3
				c0-2.5-0.2-1.9,1.7-3.3c2.2-1.5,4.4-3,6.7-4.5C41.2,6.8,41.5,6,41.5,5c0-1.1,0-2.3,0-3.4c0-0.7,0.3-1.1,1.1-1.1
				c2.5,0,4.9,0,7.4,0c0.8,0,1.1,0.3,1.1,1.1c0,1.2,0,2.5,0,3.7c0,0.9,0.4,1.5,1.1,1.9c2.6,1.8,5.2,3.5,7.9,5.3
				c0.5,0.3,0.7,0.7,0.6,1.2c0,0.5,0,1.1,0,1.6c0,0.8-0.3,1.1-1.1,1.1C55.1,16.4,50.7,16.4,46.3,16.4z"/>
			<path fill="none" stroke="#FFFFFF" stroke-miterlimit="10" d="M0.5,59.3c0-2.4,0-23.9,0-26.3c0-0.8,0.3-1.1,1-1.1
				c8.9,0,17.7,0,26.6,0c0.8,0,1.1,0.3,1.1,1.1c0,2.4,0,4.7,0,7.1c0,0.2,0,0.3,0,0.5"/>
			<path fill="none" stroke="#FFFFFF" stroke-miterlimit="10" d="M29.2,40.6c0,2.8,0,8.5,0,11.4"/>
			<path fill="none" stroke="#FFFFFF" stroke-miterlimit="10" d="M29.2,52c0,2.6,0,5.2,0,7.8c0,0.5-0.3,0.7-0.7,0.8
				c-0.2,0-0.4,0-0.6,0c-8.7,0-17.4,0-26.1,0c-1.1,0-1.3-0.2-1.3-1.3"/>
			<path fill="none" stroke="#FFFFFF" stroke-miterlimit="10" d="M14.1,16.4c-0.2,0-0.4,0-0.6,0c-3.9,0-7.8,0-11.8,0
				c-1,0-1.2-0.2-1.2-1.2c0-4.5,0-9.1,0-13.6c0-0.7,0.3-1.1,1-1.1c4.1,0,8.2,0,12.3,0c0.1,0,0.1,0,0.2,0
				C14.1,5.8,14.1,11.1,14.1,16.4z"/>
			<path fill="none" stroke="#FFFFFF" stroke-miterlimit="10" d="M15.6,16.4c0-5.3,0-10.5,0-15.9c0.2,0,0.4,0,0.5,0
				c4,0,7.9,0,11.9,0c0.9,0,1.2,0.3,1.2,1.2c0,4.5,0,9,0,13.4c0,0.9-0.3,1.2-1.2,1.2c-4,0-7.9,0-11.9,0C16,16.4,15.8,16.4,15.6,16.4
				z"/>
		</g>
		<circle fill="none" stroke="#FFFFFF" stroke-miterlimit="10" cx="18.9" cy="8.4" r="0.3"/>
		<circle fill="none" stroke="#FFFFFF" stroke-miterlimit="10" cx="42.2" cy="36.9" r="0.4"/>
		<circle fill="none" stroke="#FFFFFF" stroke-miterlimit="10" cx="46.3" cy="36.9" r="0.4"/>
		<circle fill="none" stroke="#FFFFFF" stroke-miterlimit="10" cx="50.3" cy="36.9" r="0.4"/>
		<circle fill="none" stroke="#FFFFFF" stroke-miterlimit="10" cx="10.7" cy="8.4" r="0.3"/>
		<line fill="none" stroke="#FFFFFF" stroke-linecap="round" stroke-miterlimit="10" x1="11.9" y1="36.9" x2="17.8" y2="36.9"/>
		<line fill="none" stroke="#FFFFFF" stroke-linecap="round" stroke-miterlimit="10" x1="11.9" y1="47" x2="17.8" y2="47"/>
		<line fill="none" stroke="#FFFFFF" stroke-linecap="round" stroke-miterlimit="10" x1="11.9" y1="56.2" x2="17.8" y2="56.2"/>
	</g>
	<line fill="none" stroke="#FFFFFF" stroke-miterlimit="10" x1="0.5" y1="51.8" x2="29.2" y2="51.8"/>
	<line fill="none" stroke="#FFFFFF" stroke-miterlimit="10" x1="0.5" y1="42.1" x2="29.2" y2="42.1"/>
</g>
</svg>
