<?xml version="1.0" encoding="utf-8"?>
<!-- Generator: Adobe Illustrator 18.1.1, SVG Export Plug-In . SVG Version: 6.00 Build 0)  -->
<svg version="1.1" id="Layer_1" xmlns="http://www.w3.org/2000/svg" xmlns:xlink="http://www.w3.org/1999/xlink" x="0px" y="0px"
	 viewBox="0 0 65 58.7" enable-background="new 0 0 65 58.7" xml:space="preserve">
<g>
	<path fill="none" stroke="#FFFFFF" stroke-miterlimit="10" d="M12.2,24.1c-1.3-1.4-2-3.2-2.2-5.1c-0.2-2.2,0.4-4.3,1.7-6.1
		c0.2-0.2,0.2-0.4,0-0.6c-0.6-0.9-0.7-1.8-0.6-2.8c0-0.2,0-0.4-0.2-0.6C10.4,8.3,9.7,7.6,9.1,7c-0.4-0.4-0.6-0.3-1,0
		c-2.3,2.4-4.7,4.7-7.1,7.1c-0.1,0.1-0.3,0.3-0.5,0.5c0-0.2-0.1-0.3-0.1-0.5c0-2.2,0-4.4,0-6.6c0-0.2,0.1-0.5,0.3-0.7
		C2.5,5.1,4.2,3.4,6,1.6c1.5-1.5,3.7-1.5,5.3,0c1.2,1.1,2.3,2.3,3.5,3.5c0.1,0.1,0.3,0.2,0.5,0.2c1.2-0.3,2.3,0,3.2,0.7
		c4.1-3.6,9.4-2.7,12-0.2C24.4,11.9,18.3,18,12.2,24.1z"/>
	<path fill="none" stroke="#FFFFFF" stroke-miterlimit="10" d="M34.1,8.7c-0.1,0.2-0.3,0.6-0.6,0.9c-5.3,5.3-10.6,10.7-16,16
		c-0.8,0.8-1.6,1.6-2.4,2.4c-0.7,0.7-1.5,0.7-2.1,0.1c-0.6-0.6-0.5-1.4,0.2-2c6.1-6.2,12.3-12.3,18.4-18.4c0.5-0.5,1.1-0.7,1.6-0.4
		C33.8,7.4,34.1,7.8,34.1,8.7z"/>
	<g>
		<line fill="none" stroke="#FFFFFF" stroke-miterlimit="10" x1="32.2" y1="14.2" x2="35.4" y2="16.5"/>
		<line fill="none" stroke="#FFFFFF" stroke-miterlimit="10" x1="37" y1="17.6" x2="40.3" y2="19.9"/>
		<line fill="none" stroke="#FFFFFF" stroke-miterlimit="10" x1="41.9" y1="21" x2="45.1" y2="23.4"/>
		<line fill="none" stroke="#FFFFFF" stroke-miterlimit="10" x1="46.7" y1="24.5" x2="50" y2="26.8"/>
		<line fill="none" stroke="#FFFFFF" stroke-miterlimit="10" x1="51.5" y1="27.9" x2="54.8" y2="30.2"/>
		<line fill="none" stroke="#FFFFFF" stroke-miterlimit="10" x1="56.6" y1="31.4" x2="59.8" y2="33.7"/>
		<line fill="none" stroke="#FFFFFF" stroke-miterlimit="10" x1="61.4" y1="34.8" x2="64.7" y2="37.2"/>
	</g>
	<g>
		<line fill="none" stroke="#FFFFFF" stroke-miterlimit="10" x1="29.2" y1="16.9" x2="32.1" y2="19.6"/>
		<line fill="none" stroke="#FFFFFF" stroke-miterlimit="10" x1="33.6" y1="20.9" x2="36.6" y2="23.6"/>
		<line fill="none" stroke="#FFFFFF" stroke-miterlimit="10" x1="38" y1="24.9" x2="41" y2="27.5"/>
		<line fill="none" stroke="#FFFFFF" stroke-miterlimit="10" x1="42.4" y1="28.8" x2="45.4" y2="31.5"/>
		<line fill="none" stroke="#FFFFFF" stroke-miterlimit="10" x1="46.8" y1="32.7" x2="49.8" y2="35.4"/>
		<line fill="none" stroke="#FFFFFF" stroke-miterlimit="10" x1="51.4" y1="36.8" x2="54.4" y2="39.5"/>
		<line fill="none" stroke="#FFFFFF" stroke-miterlimit="10" x1="55.9" y1="40.8" x2="58.8" y2="43.5"/>
	</g>
	<g>
		<line fill="none" stroke="#FFFFFF" stroke-miterlimit="10" x1="26" y1="20.1" x2="28.9" y2="22.9"/>
		<line fill="none" stroke="#FFFFFF" stroke-miterlimit="10" x1="30.3" y1="24.3" x2="33.2" y2="27.1"/>
		<line fill="none" stroke="#FFFFFF" stroke-miterlimit="10" x1="34.6" y1="28.4" x2="37.4" y2="31.2"/>
		<line fill="none" stroke="#FFFFFF" stroke-miterlimit="10" x1="38.8" y1="32.5" x2="41.7" y2="35.3"/>
		<line fill="none" stroke="#FFFFFF" stroke-miterlimit="10" x1="43.1" y1="36.6" x2="45.9" y2="39.4"/>
		<line fill="none" stroke="#FFFFFF" stroke-miterlimit="10" x1="47.5" y1="40.9" x2="50.4" y2="43.7"/>
		<line fill="none" stroke="#FFFFFF" stroke-miterlimit="10" x1="51.7" y1="45.1" x2="54.6" y2="47.8"/>
	</g>
	<g>
		<line fill="none" stroke="#FFFFFF" stroke-miterlimit="10" x1="23.2" y1="23" x2="25.8" y2="26"/>
		<line fill="none" stroke="#FFFFFF" stroke-miterlimit="10" x1="27.1" y1="27.5" x2="29.7" y2="30.5"/>
		<line fill="none" stroke="#FFFFFF" stroke-miterlimit="10" x1="31" y1="31.9" x2="33.6" y2="35"/>
		<line fill="none" stroke="#FFFFFF" stroke-miterlimit="10" x1="34.9" y1="36.4" x2="37.5" y2="39.4"/>
		<line fill="none" stroke="#FFFFFF" stroke-miterlimit="10" x1="38.8" y1="40.8" x2="41.4" y2="43.8"/>
		<line fill="none" stroke="#FFFFFF" stroke-miterlimit="10" x1="42.9" y1="45.5" x2="45.5" y2="48.5"/>
		<line fill="none" stroke="#FFFFFF" stroke-miterlimit="10" x1="46.8" y1="49.9" x2="49.4" y2="52.9"/>
	</g>
	<g>
		<line fill="none" stroke="#FFFFFF" stroke-miterlimit="10" x1="20.1" y1="26.2" x2="22.5" y2="29.5"/>
		<line fill="none" stroke="#FFFFFF" stroke-miterlimit="10" x1="23.6" y1="31" x2="26" y2="34.3"/>
		<line fill="none" stroke="#FFFFFF" stroke-miterlimit="10" x1="27.1" y1="35.8" x2="29.5" y2="39.1"/>
		<line fill="none" stroke="#FFFFFF" stroke-miterlimit="10" x1="30.6" y1="40.6" x2="32.9" y2="43.8"/>
		<line fill="none" stroke="#FFFFFF" stroke-miterlimit="10" x1="34.1" y1="45.4" x2="36.4" y2="48.6"/>
		<line fill="none" stroke="#FFFFFF" stroke-miterlimit="10" x1="37.7" y1="50.4" x2="40.1" y2="53.6"/>
		<line fill="none" stroke="#FFFFFF" stroke-miterlimit="10" x1="41.2" y1="55.2" x2="43.5" y2="58.4"/>
	</g>
</g>
</svg>
