<?xml version="1.0" encoding="utf-8"?>
<!-- Generator: Adobe Illustrator 18.1.1, SVG Export Plug-In . SVG Version: 6.00 Build 0)  -->
<svg version="1.1" id="Layer_1" xmlns="http://www.w3.org/2000/svg" xmlns:xlink="http://www.w3.org/1999/xlink" x="0px" y="0px"
	 viewBox="0 0 55.2 53.4" enable-background="new 0 0 55.2 53.4" xml:space="preserve">
<g>
	<path fill="none" stroke="#FFFFFF" stroke-miterlimit="10" d="M27.6,21.8c7.9,0,15.7,0,23.6,0c0.8,0,0.9,0.1,0.9,0.9
		c0,2.7,0,5.4,0,8.1c0,0.7-0.1,0.8-0.8,0.8c-15.9,0-31.7,0-47.6,0c-0.7,0-0.8-0.1-0.8-0.8c0-2.8,0-5.5,0-8.3c0-0.7,0.1-0.8,0.8-0.8
		C11.8,21.8,19.7,21.8,27.6,21.8z"/>
	<path fill="none" stroke="#FFFFFF" stroke-miterlimit="10" d="M47,11.1c0,3.2,0,6.4,0,9.7c0,0.8-0.1,0.9-0.9,0.9
		c-2.7,0-5.4,0-8.1,0c-0.7,0-0.9-0.1-0.9-0.8c0-6.5,0-13,0-19.5c0-0.7,0.1-0.9,0.9-0.9c2.7,0,5.4,0,8.2,0c0.7,0,0.9,0.1,0.9,0.9
		C47,4.6,47,7.9,47,11.1z"/>
	<path fill="none" stroke="#FFFFFF" stroke-miterlimit="10" d="M20.2,42.2c0,3.2,0,6.5,0,9.7c0,0.8-0.1,0.9-0.9,0.9
		c-2.7,0-5.4,0-8.1,0c-0.8,0-0.9-0.1-0.9-0.9c0-6.5,0-12.9,0-19.4c0-0.8,0.1-0.9,0.9-0.9c2.7,0,5.5,0,8.2,0c0.7,0,0.8,0.1,0.8,0.8
		C20.2,35.7,20.2,39,20.2,42.2z"/>
	<path fill="none" stroke="#FFFFFF" stroke-miterlimit="10" d="M33.9,38.4c0-2,0-3.9,0-5.9c0-0.7,0.2-0.8,0.8-0.8c2.8,0,5.5,0,8.3,0
		c0.7,0,0.8,0.1,0.8,0.8c0,4,0,8,0,11.9c0,0.6-0.1,0.8-0.8,0.8c-2.8,0-5.6,0-8.3,0c-0.6,0-0.8-0.2-0.8-0.8
		C33.9,42.4,33.9,40.4,33.9,38.4z"/>
	<path fill="none" stroke="#FFFFFF" stroke-miterlimit="10" d="M3,26.7c0,1.7,0,3.5,0,5.2c0,0.9-0.5,1.4-1.2,1.4
		c-0.7,0-1.3-0.6-1.3-1.4c0-3.5,0-7,0-10.5c0-0.8,0.5-1.4,1.3-1.4c0.8,0,1.3,0.6,1.3,1.4C3,23.3,3,25,3,26.7z"/>
	<path fill="none" stroke="#FFFFFF" stroke-miterlimit="10" d="M38.9,45.2c1.7,0,3.5,0,5.2,0c0.9,0,1.4,0.5,1.4,1.3
		c0,0.8-0.5,1.3-1.4,1.3c-3.5,0-6.9,0-10.4,0c-0.8,0-1.5-0.5-1.4-1.3c0-0.7,0.6-1.2,1.4-1.2C35.4,45.2,37.1,45.2,38.9,45.2z"/>
	<path fill="none" stroke="#FFFFFF" stroke-miterlimit="10" d="M54.7,26.7c0,1.8,0,3.5,0,5.3c0,0.7-0.4,1.2-1,1.3
		c-0.6,0.1-1.2-0.2-1.4-0.7c-0.1-0.3-0.1-0.6-0.1-0.9c0-3.1,0-6.3,0-9.4c0-0.4,0-0.8,0-1.2c0.1-0.6,0.5-1,1.1-1.1
		c0.5-0.1,1.1,0.3,1.3,0.8c0.1,0.2,0.1,0.5,0.1,0.8C54.7,23.4,54.7,25,54.7,26.7C54.7,26.7,54.7,26.7,54.7,26.7z"/>
</g>
</svg>
