<?xml version="1.0" encoding="utf-8"?>
<!-- Generator: Adobe Illustrator 18.1.1, SVG Export Plug-In . SVG Version: 6.00 Build 0)  -->
<svg version="1.1" id="Layer_1" xmlns="http://www.w3.org/2000/svg" xmlns:xlink="http://www.w3.org/1999/xlink" x="0px" y="0px"
	 viewBox="0 0 88.6 52.7" enable-background="new 0 0 88.6 52.7" xml:space="preserve">
<g>
	<polygon fill="none" stroke="#FFFFFF" stroke-width="0.75" stroke-miterlimit="10" points="1.1,24.3 20.4,10.6 20.4,2.7 26.7,2.7 
		26.7,6.1 34.2,0.7 34.2,52.3 6.9,52.3 6.9,24.4 	"/>
	<polygon fill="none" stroke="#FFFFFF" stroke-width="0.75" stroke-miterlimit="10" points="35.9,0.7 35.9,7.3 48.4,7.3 51.9,3.8 
		48.3,0.7 	"/>
	<polygon fill="none" stroke="#FFFFFF" stroke-width="0.75" stroke-miterlimit="10" points="36,8.3 36,14.9 54.7,14.9 58.2,11.3 
		54.6,8.3 	"/>
	<polygon fill="none" stroke="#FFFFFF" stroke-width="0.75" stroke-miterlimit="10" points="36,15.6 36,22.2 60.4,22.2 63.9,18.7 
		60.4,15.6 	"/>
	<polygon fill="none" stroke="#FFFFFF" stroke-width="0.75" stroke-miterlimit="10" points="36.1,23.2 36.1,29.8 66.3,29.8 
		69.8,26.2 66.2,23.2 	"/>
	<polygon fill="none" stroke="#FFFFFF" stroke-width="0.75" stroke-miterlimit="10" points="36,38 36,44.6 78.5,44.6 82,41 78.4,38 
			"/>
	<polygon fill="none" stroke="#FFFFFF" stroke-width="0.75" stroke-miterlimit="10" points="36,30.5 36,37.1 72.1,37.1 75.7,33.6 
		72.1,30.5 	"/>
	<polygon fill="none" stroke="#FFFFFF" stroke-width="0.75" stroke-miterlimit="10" points="36,45.5 36,52.1 84.5,52.1 88,48.5 
		84.4,45.5 	"/>
</g>
</svg>
