<?xml version="1.0" encoding="utf-8"?>
<!-- Generator: Adobe Illustrator 18.1.1, SVG Export Plug-In . SVG Version: 6.00 Build 0)  -->
<svg version="1.1" id="Layer_1" xmlns="http://www.w3.org/2000/svg" xmlns:xlink="http://www.w3.org/1999/xlink" x="0px" y="0px"
	 viewBox="0 0 50.9 49.9" enable-background="new 0 0 50.9 49.9" xml:space="preserve">
<g>
	<polygon fill="none" stroke="#FFFFFF" stroke-miterlimit="10" points="25.7,0.6 1,14.8 25.7,27.9 49.8,14.3 	"/>
	<g>
		<g>
			<polyline fill="none" stroke="#FFFFFF" stroke-miterlimit="10" points="4.6,38 1,36.1 4.5,34.1 			"/>
			
				<line fill="none" stroke="#FFFFFF" stroke-miterlimit="10" stroke-dasharray="6.8224,6.8224" x1="10.4" y1="30.7" x2="19.3" y2="25.6"/>
			<polyline fill="none" stroke="#FFFFFF" stroke-miterlimit="10" points="22.2,23.9 25.7,21.9 29.2,23.9 			"/>
			
				<line fill="none" stroke="#FFFFFF" stroke-miterlimit="10" stroke-dasharray="6.5712,6.5712" x1="34.9" y1="27.1" x2="43.5" y2="32"/>
			<polyline fill="none" stroke="#FFFFFF" stroke-miterlimit="10" points="46.3,33.6 49.8,35.6 46.3,37.6 			"/>
			
				<line fill="none" stroke="#FFFFFF" stroke-miterlimit="10" stroke-dasharray="6.5712,6.5712" x1="40.6" y1="40.8" x2="32.1" y2="45.7"/>
			<polyline fill="none" stroke="#FFFFFF" stroke-miterlimit="10" points="29.2,47.3 25.7,49.3 22.2,47.4 			"/>
			
				<line fill="none" stroke="#FFFFFF" stroke-miterlimit="10" stroke-dasharray="6.6626,6.6626" x1="16.3" y1="44.3" x2="7.5" y2="39.6"/>
		</g>
	</g>
	<line fill="none" stroke="#FFFFFF" stroke-miterlimit="10" stroke-dasharray="5" x1="1" y1="32.7" x2="1" y2="15.3"/>
	<line fill="none" stroke="#FFFFFF" stroke-miterlimit="10" stroke-dasharray="8" x1="25.7" y1="28.6" x2="25.7" y2="48.5"/>
	<line fill="none" stroke="#FFFFFF" stroke-miterlimit="10" stroke-dasharray="8" x1="25.7" y1="19.9" x2="25.7" y2="0.6"/>
	<line fill="none" stroke="#FFFFFF" stroke-miterlimit="10" stroke-dasharray="5" x1="50.4" y1="15.7" x2="49.9" y2="34"/>
</g>
</svg>
