<?xml version="1.0" encoding="utf-8"?>
<!-- Generator: Adobe Illustrator 18.1.1, SVG Export Plug-In . SVG Version: 6.00 Build 0)  -->
<svg version="1.1" id="Layer_1" xmlns="http://www.w3.org/2000/svg" xmlns:xlink="http://www.w3.org/1999/xlink" x="0px" y="0px"
	 viewBox="0 0 61.6 61.7" enable-background="new 0 0 61.6 61.7" xml:space="preserve">
<g>
	<g>
		<path fill="none" stroke="#FFFFFF" stroke-miterlimit="10" d="M11.1,61.2c-3.6,0-7.1,0-10.6,0c0-20.2,0-40.4,0-60.7
			c20.2,0,40.4,0,60.6,0c0,20.2,0,40.4,0,60.6c-3.5,0-7,0-10.6,0c0-0.3,0-0.5,0-0.8c0-14.4,0-28.8,0-43.2c0-1.1-0.1-1.2-1.2-1.2
			c-12.3,0-24.6,0-37,0c-1.2,0-1.2,0-1.2,1.2c0,14.4,0,28.7,0,43.1C11.1,60.6,11.1,60.8,11.1,61.2z M57,36.8c0-0.7-0.6-1.2-1.2-1.2
			c-0.6,0-1.2,0.6-1.2,1.2c0,0.7,0.6,1.2,1.2,1.2C56.5,38,57,37.4,57,36.8z M55.9,30.8c-0.7,0-1.2,0.5-1.2,1.2
			c0,0.6,0.5,1.2,1.2,1.2c0.6,0,1.2-0.5,1.2-1.2C57,31.4,56.5,30.8,55.9,30.8z"/>
		<path fill="none" stroke="#FFFFFF" stroke-miterlimit="10" d="M17.2,21.9c9.1,0,18.2,0,27.3,0c0,13.1,0,26.1,0,39.2
			c-9.1,0-18.1,0-27.3,0C17.2,48.1,17.2,35.1,17.2,21.9z"/>
		<line fill="none" stroke="#FFFFFF" stroke-miterlimit="10" x1="30.8" y1="61.2" x2="30.8" y2="21.9"/>
	</g>
	<polyline fill="none" stroke="#FFFFFF" stroke-miterlimit="10" points="20.9,6.6 23.7,9.4 26.5,6.6 	"/>
	<polyline fill="none" stroke="#FFFFFF" stroke-miterlimit="10" points="35.2,9.4 38,6.6 40.8,9.4 	"/>
</g>
</svg>
