<?xml version="1.0" encoding="utf-8"?>
<!-- Generator: Adobe Illustrator 18.1.1, SVG Export Plug-In . SVG Version: 6.00 Build 0)  -->
<svg version="1.1" id="Layer_1" xmlns="http://www.w3.org/2000/svg" xmlns:xlink="http://www.w3.org/1999/xlink" x="0px" y="0px"
	 viewBox="0 0 92.9 64.8" enable-background="new 0 0 92.9 64.8" xml:space="preserve">
<g>
	<path fill="none" stroke="#FFFFFF" stroke-width="0.75" stroke-miterlimit="10" d="M5.2,18.2c-0.3,0-0.6,0-1,0c0,0.2,0,0.5,0,0.8
		c0,5.3,0,10.7,0,16c0,0.3,0,0.6-0.1,0.9c-0.2,0.9-0.9,1.5-1.9,1.5c-0.9,0-1.6-0.6-1.8-1.5c0-0.3-0.1-0.5-0.1-0.8
		c0-5.6,0-11.2,0-16.7c0-3.4,2.5-5.9,6-5.9c3.6,0,7.1,0,10.7,0c3.3,0,5.8,2.6,5.8,5.8c0,5.7,0,11.4,0,17.2c0,1.3-0.8,2-1.9,2
		c-1.1,0-1.8-0.9-1.8-2c0-2.6,0-5.3,0-7.9c0-2.8,0-5.7,0-8.5c0-0.2,0-0.4,0-0.7c-0.4,0-0.6,0-1,0c0,0.3,0,0.6,0,0.8
		c0,14.1,0,28.1,0,42.2c0,1.5-0.7,2.6-2,3c-1.9,0.6-3.8-0.7-3.8-2.8c0-7.5,0-14.9,0-22.4c0-0.7,0-1.4,0-2.1c-0.4,0-0.9,0-1.3,0
		c0,0.2,0,0.5,0,0.7c0,7.9,0,15.8,0,23.7c0,1.2-0.5,2.1-1.6,2.7c-1,0.5-2,0.5-3-0.2c-0.8-0.6-1.3-1.4-1.3-2.4c0-2.8,0-5.6,0-8.5
		c0-11.3,0-22.6,0-33.9C5.2,18.8,5.2,18.5,5.2,18.2z"/>
	<path fill="none" stroke="#FFFFFF" stroke-width="0.75" stroke-miterlimit="10" d="M11.7,0.4c2.8,0,5,2.2,5,5c0,2.7-2.2,5-5,5
		c-2.8,0-5-2.2-5-5C6.6,2.6,8.9,0.4,11.7,0.4z"/>
	<rect x="28.5" y="0.4" fill="none" stroke="#FFFFFF" stroke-width="0.75" stroke-miterlimit="10" width="18.9" height="18.9"/>
	<rect x="28.5" y="22.9" fill="none" stroke="#FFFFFF" stroke-width="0.75" stroke-miterlimit="10" width="18.9" height="18.9"/>
	<rect x="28.5" y="45.4" fill="none" stroke="#FFFFFF" stroke-width="0.75" stroke-miterlimit="10" width="18.9" height="18.9"/>
	<rect x="51.1" y="0.4" fill="none" stroke="#FFFFFF" stroke-width="0.75" stroke-miterlimit="10" width="18.9" height="18.9"/>
	<rect x="51.1" y="22.9" fill="none" stroke="#FFFFFF" stroke-width="0.75" stroke-miterlimit="10" width="18.9" height="18.9"/>
	<rect x="51.1" y="45.4" fill="none" stroke="#FFFFFF" stroke-width="0.75" stroke-miterlimit="10" width="18.9" height="18.9"/>
	<rect x="73.6" y="22.9" fill="none" stroke="#FFFFFF" stroke-width="0.75" stroke-miterlimit="10" width="18.9" height="18.9"/>
	<rect x="73.6" y="45.4" fill="none" stroke="#FFFFFF" stroke-width="0.75" stroke-miterlimit="10" width="18.9" height="18.9"/>
</g>
</svg>
