<?xml version="1.0" encoding="utf-8"?>
<!-- Generator: Adobe Illustrator 18.1.1, SVG Export Plug-In . SVG Version: 6.00 Build 0)  -->
<svg version="1.1" id="Layer_1" xmlns="http://www.w3.org/2000/svg" xmlns:xlink="http://www.w3.org/1999/xlink" x="0px" y="0px"
	 viewBox="0 0 58.7 58.3" enable-background="new 0 0 58.7 58.3" xml:space="preserve">
<g>
	<path fill="none" stroke="#FFFFFF" stroke-miterlimit="10" d="M18.4,16.5c1.5,7.1,3,14.1,4.5,21.2c-1.5,0-3,0-4.6,0
		c0,0.3,0,0.5,0,0.7c0,5.8,0,11.5,0,17.3c0,1.4-0.7,2.1-2,2.1c-1.3,0-2-0.8-2-2.1c0-5.7,0-11.5,0-17.2c0-0.2,0-0.4,0-0.7
		c-0.3,0-0.6,0-0.9,0c0,0.2,0,0.4,0,0.6c0,5.8,0,11.5,0,17.3c0,1.2-0.9,2.4-2.6,2c-0.9-0.2-1.4-1-1.4-2c0-4.5,0-9,0-13.5
		c0-1.3,0-2.6,0-3.9c0-0.2,0-0.4,0-0.6c-1.5,0-3,0-4.5,0C6.4,30.6,8,23.6,9.6,16.5c-0.7,0-1.4,0-2.1,0c-0.1,0-0.3,0.2-0.3,0.4
		c-0.7,3.2-1.5,6.5-2.2,9.7c-0.4,1.6-0.7,3.3-1.1,4.9c-0.2,1-1.1,1.7-2,1.5c-1-0.2-1.5-1.1-1.3-2.2c1.1-5,2.3-10,3.4-15
		c0.5-2.2,1.7-3.6,3.8-4.2c0.4-0.1,0.9-0.2,1.4-0.2c3.2,0,6.5,0,9.7,0c2.5,0,4.5,1.7,5.1,4.1c1,4.4,2,8.7,2.9,13.1
		c0.2,0.8,0.4,1.6,0.5,2.3c0.2,1-0.3,2-1.3,2.2c-0.9,0.2-1.8-0.4-2-1.4c-0.8-3.4-1.5-6.8-2.3-10.2c-0.3-1.5-0.7-2.9-1-4.4
		c-0.1-0.3-0.2-0.4-0.5-0.4C19.7,16.5,19.1,16.5,18.4,16.5z"/>
	<path fill="none" stroke="#FFFFFF" stroke-miterlimit="10" d="M42.4,16.5c-0.3,0-0.6,0-0.9,0c0,0.2,0,0.5,0,0.7c0,4.8,0,9.5,0,14.3
		c0,0.3,0,0.6-0.1,0.8c-0.2,0.8-0.8,1.3-1.7,1.3c-0.8,0-1.5-0.6-1.6-1.4c0-0.2-0.1-0.5-0.1-0.7c0-5,0-10,0-15c0-3.1,2.3-5.3,5.3-5.3
		c3.2,0,6.4,0,9.6,0c2.9,0,5.2,2.3,5.2,5.2c0,5.1,0,10.2,0,15.4c0,1.1-0.7,1.8-1.7,1.8c-1,0-1.6-0.8-1.7-1.8c0-2.4,0-4.7,0-7.1
		c0-2.5,0-5.1,0-7.6c0-0.2,0-0.4,0-0.6c-0.3,0-0.6,0-0.9,0c0,0.3,0,0.5,0,0.7c0,12.6,0,25.1,0,37.7c0,1.3-0.7,2.3-1.8,2.7
		c-1.7,0.6-3.4-0.7-3.4-2.5c0-6.7,0-13.3,0-20c0-0.6,0-1.2,0-1.9c-0.4,0-0.8,0-1.2,0c0,0.2,0,0.4,0,0.6c0,7.1,0,14.1,0,21.2
		c0,1.1-0.4,1.9-1.4,2.4c-0.9,0.5-1.8,0.4-2.6-0.1c-0.7-0.5-1.1-1.2-1.1-2.1c0-2.5,0-5,0-7.6c0-10.1,0-20.2,0-30.4
		C42.4,17,42.4,16.8,42.4,16.5z"/>
	<path fill="none" stroke="#FFFFFF" stroke-miterlimit="10" d="M31.5,0.5c0.9,0,1.7,0,2.6,0c0,19.1,0,38.1,0,57.2
		c-0.9,0-1.7,0-2.6,0C31.5,38.7,31.5,19.6,31.5,0.5z"/>
	<path fill="none" stroke="#FFFFFF" stroke-miterlimit="10" d="M14,0.5c2.5,0,4.5,2,4.5,4.5c0,2.5-2.1,4.5-4.5,4.5
		c-2.5,0-4.5-2-4.5-4.5C9.5,2.5,11.5,0.5,14,0.5z"/>
	<path fill="none" stroke="#FFFFFF" stroke-miterlimit="10" d="M48.1,0.5c2.5,0,4.4,2,4.4,4.5c0,2.5-2,4.4-4.5,4.4
		c-2.5,0-4.4-2-4.5-4.5C43.7,2.5,45.6,0.5,48.1,0.5z"/>
</g>
</svg>
