<?xml version="1.0" encoding="utf-8"?>
<!-- Generator: Adobe Illustrator 18.1.1, SVG Export Plug-In . SVG Version: 6.00 Build 0)  -->
<svg version="1.1" id="Layer_1" xmlns="http://www.w3.org/2000/svg" xmlns:xlink="http://www.w3.org/1999/xlink" x="0px" y="0px"
	 viewBox="0 0 64.7 64.7" enable-background="new 0 0 64.7 64.7" xml:space="preserve">
<g>
	<path fill="none" stroke="#FFFFFF" stroke-miterlimit="10" d="M32.8,0.5C15,0.3,0.7,14.6,0.5,32C0.3,49.9,14.8,64.2,32.3,64.2
		c17.5,0,31.8-14.2,31.9-31.5C64.4,15.1,50.3,0.7,32.8,0.5z M32.4,20.3c-1.1,0-1.9-0.8-1.9-1.9c0-1,0.9-1.9,1.9-1.9
		c1.1,0,1.9,0.8,1.9,1.9C34.3,19.4,33.4,20.3,32.4,20.3z M44.9,56c0-0.2,0-0.4,0-0.6c0-2.1,0-4.3,0-6.4c0-0.2,0.1-0.4-0.1-0.6
		c-0.1,0-0.1-0.1-0.1-0.1c-0.3-1.5-1.2-2.4-2.7-2.8c-0.2,0-0.3-0.1-0.4-0.2c-0.2-0.8-0.1-1.7-0.1-2.5c0.3-4.1,1.3-8.1,2.9-11.9
		c0.2-0.6,0.6-0.9,1.2-1c1.6-0.4,2.9-2.1,2.8-3.7c-0.1-1.9-1.4-3.4-3.3-3.7c-1.7-0.3-3.5,0.8-4.1,2.5c-0.4,1.1-0.4,2.1,0.2,3.1
		c0.4,0.6,0.3,1,0.1,1.6c-1.2,2.7-2,5.6-2.6,8.5c-0.4,2.1-0.6,4.3-0.7,6.4c0,0.3,0.1,0.7-0.3,0.9c-1.2,0.1-2.4,0.2-3.6-0.1
		c-0.1-0.1-0.1-0.1-0.1-0.2c-0.1-0.2,0-0.5,0-0.7c0-7.2,0-14.4,0-21.6c0-0.2,0-0.4,0-0.6c0.1-0.3,0.3-0.4,0.5-0.6
		c1.4-1,1.9-2.4,1.5-4c-0.4-1.6-1.5-2.5-3.1-2.9c-2.1-0.4-4.3,1.3-4.4,3.5c-0.1,1.5,0.5,2.6,1.7,3.5c0.2,0.1,0.4,0.3,0.4,0.5
		c0,0.3,0,0.5,0,0.8c0,7.1,0,14.3,0,21.4c0,0.3,0,0.5,0,0.8c0,0.1-0.1,0.2-0.1,0.2c-0.2,0.1-0.4,0.2-0.7,0.1c-1,0-2,0.1-2.9-0.1
		c-0.3-0.2-0.3-0.5-0.3-0.8c-0.1-5.3-1.2-10.3-3.3-15.1c-0.2-0.5-0.2-1,0.1-1.5c0.8-1.4,0.7-2.8-0.2-4.1c-0.9-1.3-2.2-1.8-3.8-1.5
		c-1.6,0.3-2.6,1.3-3,2.9c-0.5,2.1,0.8,4.1,2.9,4.5c0.4,0.1,0.7,0.3,0.9,0.7c1.4,3.2,2.3,6.5,2.8,10c0.2,1.3,0.3,2.6,0.3,3.9
		c0,0.3,0,0.5-0.1,0.8c-0.1,0.2-0.3,0.2-0.5,0.3c-1.5,0.4-2.4,1.3-2.7,2.8c0,0.1-0.1,0.1-0.1,0.1c-0.1,0.9,0,1.7-0.1,2.6
		c0,1.7,0,3.4,0,5C12.1,52.2,4.7,42.5,5.6,30.4c1-13.4,11.8-23.9,25.1-24.7c12.9-0.8,24.8,8.1,27.6,20.7
		C61.4,39.4,54.5,51.1,44.9,56z M42.6,26c0-1,0.9-1.9,1.9-1.9c1,0,1.9,0.9,1.9,1.9c0,1.1-0.8,1.9-1.9,1.9
		C43.5,27.9,42.6,27.1,42.6,26z M22.1,26c0,1-0.9,1.9-1.9,1.9c-1.1,0-1.9-0.8-1.9-1.9c0-1,0.9-1.9,1.9-1.9
		C21.2,24.1,22.1,25,22.1,26z"/>
</g>
<g>
	<path fill="none" stroke="#FFFFFF" stroke-miterlimit="10" d="M33.7,0.3C15.8,0.1,1.5,14.4,1.4,31.9C1.2,49.7,15.6,64.1,33.2,64
		C50.7,64,65,49.9,65.1,32.6C65.2,14.9,51.1,0.6,33.7,0.3z M33.2,20.1c-1.1,0-1.9-0.8-1.9-1.9c0-1,0.9-1.9,1.9-1.9
		c1.1,0,1.9,0.8,1.9,1.9C35.1,19.3,34.3,20.1,33.2,20.1z M45.7,55.8c0-0.2,0-0.4,0-0.6c0-2.1,0-4.3,0-6.4c0-0.2,0.1-0.4-0.1-0.6
		c-0.1,0-0.1-0.1-0.1-0.1c-0.3-1.5-1.2-2.4-2.7-2.8c-0.2,0-0.3-0.1-0.4-0.2c-0.2-0.8-0.1-1.7-0.1-2.5c0.3-4.1,1.3-8.1,2.9-11.9
		c0.2-0.6,0.6-0.9,1.2-1c1.6-0.4,2.9-2.1,2.8-3.7c-0.1-1.9-1.4-3.4-3.3-3.7c-1.7-0.3-3.5,0.8-4.1,2.5c-0.4,1.1-0.4,2.1,0.2,3.1
		c0.4,0.6,0.3,1,0.1,1.6c-1.2,2.7-2,5.6-2.6,8.5c-0.4,2.1-0.6,4.3-0.7,6.4c0,0.3,0.1,0.7-0.3,0.9c-1.2,0.1-2.4,0.2-3.6-0.1
		C35,45,34.9,45,34.9,44.9c-0.1-0.2,0-0.5,0-0.7c0-7.2,0-14.4,0-21.6c0-0.2,0-0.4,0-0.6c0.1-0.3,0.3-0.4,0.5-0.6
		c1.4-1,1.9-2.4,1.5-4c-0.4-1.6-1.5-2.5-3.1-2.9c-2.1-0.4-4.3,1.3-4.4,3.5c-0.1,1.5,0.5,2.6,1.7,3.5c0.2,0.1,0.4,0.3,0.4,0.5
		c0,0.3,0,0.5,0,0.8c0,7.1,0,14.3,0,21.4c0,0.3,0,0.5,0,0.8c0,0.1-0.1,0.2-0.1,0.2c-0.2,0.1-0.4,0.2-0.7,0.1c-1,0-2,0.1-2.9-0.1
		c-0.3-0.2-0.3-0.5-0.3-0.8c-0.1-5.3-1.2-10.3-3.3-15.1c-0.2-0.5-0.2-1,0.1-1.5c0.8-1.4,0.7-2.8-0.2-4.1c-0.9-1.3-2.2-1.8-3.8-1.5
		c-1.6,0.3-2.6,1.3-3,2.9c-0.5,2.1,0.8,4.1,2.9,4.5c0.4,0.1,0.7,0.3,0.9,0.7c1.4,3.2,2.3,6.5,2.8,10c0.2,1.3,0.3,2.6,0.3,3.9
		c0,0.3,0,0.5-0.1,0.8c-0.1,0.2-0.3,0.2-0.5,0.3c-1.5,0.4-2.4,1.3-2.7,2.8c0,0.1-0.1,0.1-0.1,0.1c-0.1,0.9,0,1.7-0.1,2.6
		c0,1.7,0,3.4,0,5C12.9,52,5.6,42.3,6.5,30.2c1-13.4,11.8-23.9,25.1-24.7c12.9-0.8,24.8,8.1,27.6,20.7
		C62.3,39.2,55.3,50.9,45.7,55.8z M43.4,25.9c0-1,0.9-1.9,1.9-1.9c1,0,1.9,0.9,1.9,1.9c0,1.1-0.8,1.9-1.9,1.9
		C44.3,27.7,43.5,26.9,43.4,25.9z M23,25.8c0,1-0.9,1.9-1.9,1.9c-1.1,0-1.9-0.8-1.9-1.9c0-1,0.9-1.9,1.9-1.9
		C22.1,23.9,23,24.8,23,25.8z"/>
</g>
</svg>
