<?xml version="1.0" encoding="utf-8"?>
<!-- Generator: Adobe Illustrator 18.1.1, SVG Export Plug-In . SVG Version: 6.00 Build 0)  -->
<svg version="1.1" id="Layer_1" xmlns="http://www.w3.org/2000/svg" xmlns:xlink="http://www.w3.org/1999/xlink" x="0px" y="0px"
	 viewBox="0 0 61.8 61.8" enable-background="new 0 0 61.8 61.8" xml:space="preserve">
<g>
	<path fill="none" stroke="#FFFFFF" stroke-miterlimit="10" d="M59,61.3c0-1.8,0-3.6,0-5.3c0-6.1,0-12.2,0-18.2c0-0.8,0-0.8-0.8-0.8
		c-11.7,0-23.4,0-35.2,0c-0.5,0-0.6,0.2-0.6,0.6c0,2,0,4,0,5.9c0,0.2,0,0.4,0,0.7c-7.3,0-14.5,0-21.8,0c0-0.2,0-0.4,0-0.6
		c0-3.2,0-6.4,0-9.6c0-1.3,0.6-1.9,1.8-1.9c18.9,0,37.9,0,56.8,0c1,0,1.7,0.3,2.1,1.2c0,9.3,0,18.7,0,28
		C60.5,61.3,59.7,61.3,59,61.3z M7.8,39.4c0,0.8,0,1.6,0,2.4c2.4,0,4.8,0,7.3,0c0-0.8,0-1.6,0-2.4C12.6,39.4,10.3,39.4,7.8,39.4z"/>
	<path fill="none" stroke="#FFFFFF" stroke-miterlimit="10" d="M0.5,61.3c0-4.6,0-9.1,0-13.7c0-0.3,0-0.5,0-0.8c7.3,0,14.5,0,21.8,0
		c0,0.2,0,0.4,0,0.6c0,2.5,0,5,0,7.5c0,1.2-0.4,1.6-1.6,1.6c-5.7,0-11.4,0-17.1,0c-0.2,0-0.4,0-0.8,0c0,1.7,0,3.3,0,4.9
		C2.1,61.3,1.3,61.3,0.5,61.3z M15.1,49.1c-2.4,0-4.7,0-7,0c-0.1,0-0.3,0.2-0.3,0.2c0,0.7,0,1.4,0,2.1c2.5,0,4.9,0,7.3,0
		C15.1,50.7,15.1,50,15.1,49.1z"/>
	<path fill="none" stroke="#FFFFFF" stroke-miterlimit="10" d="M43.8,24.8c0.6,1.9,1.7,3.4,3.1,4.8c-5.9,0-11.6,0-17.5,0
		c1.4-1.4,2.5-2.9,3.1-4.8c-0.3,0-0.5,0-0.7,0c-2.7,0-5.3,0-8,0c-1.1,0-1.6-0.4-1.6-1.5c0-7,0-14,0-21c0-0.2,0-0.3,0-0.5
		c0-0.9,0.5-1.3,1.4-1.3c3,0,6,0,9,0c6.5,0,13.1,0,19.6,0c1.2,0,1.6,0.4,1.6,1.6c0,6.9,0,13.8,0,20.7c0,0.2,0,0.4,0,0.5
		c0,1-0.5,1.4-1.5,1.4c-2.6,0-5.3,0-7.9,0C44.4,24.8,44.1,24.8,43.8,24.8z M24.9,19.9c9,0,17.8,0,26.7,0c0-5.7,0-11.3,0-17
		c-8.9,0-17.8,0-26.7,0C24.9,8.6,24.9,14.3,24.9,19.9z"/>
	<path fill="none" stroke="#FFFFFF" stroke-miterlimit="10" d="M17.3,29.6c-4,0-7.8,0-11.8,0c0.7-2.5,2.3-4,4.7-4.6c0-2.5,0-5,0-7.5
		c-0.2,0-0.4,0-0.6,0c-1.8,0-3.5,0-5.3,0c-1.2,0-1.6-0.6-1.4-1.7c0.8-3.1,1.5-6.2,2.3-9.3c0.2-0.9,0.6-1.1,1.5-1.1
		c3.1,0,6.2,0,9.3,0c0.9,0,1.2,0.3,1.5,1.2c0.8,3.1,1.6,6.2,2.3,9.3c0.2,1-0.2,1.6-1.3,1.6c-1.8,0-3.6,0-5.4,0
		c-0.5,0-0.6,0.2-0.6,0.6c0,2.1,0,4.3,0,6.4c0,0.4,0.1,0.6,0.5,0.7c1.9,0.6,3.1,1.8,3.9,3.6C17.2,29,17.2,29.3,17.3,29.6z"/>
</g>
</svg>
