<svg xmlns="http://www.w3.org/2000/svg" width="75" height="42" viewBox="0 0 75 42"><g><g><path fill="none" stroke="#fff" stroke-miterlimit="50" d="M52.368 11.733c-.222.209-.398.363-.56.528-4.293 4.313-8.58 8.632-12.88 12.937-.352.353-.487.639-.338 1.176.492 1.776-.45 3.561-2.144 4.232-1.698.673-3.58.008-4.46-1.627-.213-.392-.448-.501-.86-.485-.756.029-1.514.009-2.309.009-.487 4.077-2.286 7.381-5.543 9.838-2.416 1.823-5.164 2.715-8.183 2.751-5.816.07-11.197-3.739-13.109-9.263-1.95-5.64-.094-11.825 4.577-15.487a13.96 13.96 0 0 1 17.642.534c1.3-1.231 2.606-2.466 3.907-3.705.502-.479 1.25-.896 1.413-1.474.163-.576-.264-1.32-.44-1.989-.165-.628-.373-1.247-.5-1.882-.117-.58-.356-.828-.999-.788-1.039.065-2.086.044-3.128.004-.984-.037-1.545-.86-1.202-1.698.212-.521.64-.781 1.174-.784 2.5-.016 5-.024 7.498.003.765.008 1.235.538 1.238 1.237.004.707-.455 1.181-1.228 1.244-.298.024-.6.004-1 .004l.96 3.576 18.198-4.638c-.31-.778-.582-1.521-.91-2.238-.058-.125-.359-.188-.549-.192-1.02-.019-2.042-.004-3.064-.013-.614-.005-1.113-.23-1.323-.853-.274-.813.257-1.604 1.167-1.63 1.52-.045 3.042-.027 4.562-.006.71.009 1.045.49 1.287 1.105 1.465 3.73 2.948 7.453 4.425 11.179.078.198.161.396.26.634 4.51-1.138 8.67-.456 12.38 2.388 2.706 2.077 4.423 4.828 5.08 8.167 1.364 6.927-2.57 13.658-9.199 15.855-6.605 2.189-13.828-.886-16.824-7.167-3.05-6.396-.86-14.54 6.242-18.322l-1.258-3.16zm-2.59 20.713c2.893 5.585 9.72 7.775 15.28 4.9 5.59-2.892 7.777-9.784 4.843-15.344-2.986-5.659-9.306-6.921-13-5.583 1.062 2.676 2.13 5.349 3.178 8.029.164.419.36.718.802.931 1.04.501 1.428 1.737.955 2.779a2.162 2.162 0 0 1-2.725 1.138c-1.082-.407-1.71-1.561-1.3-2.622.215-.558.107-.979-.094-1.463-.342-.819-.652-1.652-.979-2.478-.718-1.806-1.438-3.612-2.176-5.465-5.466 2.81-7.61 9.723-4.785 15.178zM8.413 18.063C3.97 21.289 2.432 27.166 4.774 32.1c2.34 4.932 7.851 7.522 13.091 6.153 4.544-1.189 8.616-5.92 8.34-9.7-.059-.015-.12-.043-.183-.043-2.715-.004-5.43-.013-8.145.01-.2.001-.449.197-.592.371-.686.835-1.545 1.284-2.623 1.119-1.625-.249-2.63-1.67-2.364-3.251.253-1.5 1.694-2.447 3.305-2.202.203.031.492-.032.636-.164 2.032-1.896 4.046-3.811 6.09-5.745-3.587-3.225-9.572-3.739-13.915-.585zm24.163-5.046c.047.222.07.372.11.517.852 3.154 1.705 6.309 2.56 9.462.258.956 1.201 1.189 1.914.472 4.564-4.59 9.12-9.187 13.704-13.757.467-.467.521-.837.088-1.384-6.13 1.566-12.245 3.125-18.376 4.69zm-1.15 13.01c.206-.002 1.592-1.752 1.553-1.954-.033-.169-.089-.334-.134-.501-.51-1.877-1.019-3.754-1.532-5.63-.308-1.13-.623-2.257-.96-3.476l-4.47 4.243c1.683 2.186 2.638 4.59 2.922 7.321.931 0 1.775.004 2.62-.003zM26.208 26c.092-1.482-1.003-4.256-2.187-5.536L18.177 26z"/></g></g></svg>