<svg xmlns="http://www.w3.org/2000/svg" width="253" height="92" viewBox="0 0 253 92"><g><g><path fill="#fff" d="M247.503 10.238c-1.383-.575-2.858-.637-3.344-.637-3.962 0-7.93 1.753-10.643 4.66-.778.891-1.472 1.546-3.382 1.546a6.58 6.58 0 0 1-1.307-.125c-3.34-.69-3.706-.773-4.969-.773-7.498 0-12.344 7.006-12.344 13.65 0 3.624 1.668 7.211 5.865 7.211 2.487 0 4.602-1.179 6.398-3.135-.37 1.956-.815 4.277-1.673 5.783-.893 1.588-2.4 3.303-4.887 3.303-.653 0-1.713-.123-2.897-1.059-1.344-1.102-1.667-1.386-2.44-1.386-1.102 0-1.67.936-1.67 1.752 0 1.955 3.013 3.384 7.17 3.384 9.695 0 11.978-6.89 12.914-11.535l1.063-5.286c1.24 1.941 3.452 3.32 6.98 3.32 5.053 0 8.556-2.607 10.104-3.79l-1.223-1.833c-1.83 1.141-3.583 2.077-5.744 2.077-2.813 0-4.319-2.199-4.319-4.399 0-.492.08-.857.122-1.22 3.983-.562 12.57-1.75 12.96-7.166a25.561 25.561 0 0 1 2.72 11.465c0 14.232-11.533 25.763-25.763 25.763-14.234 0-25.763-11.53-25.763-25.763 0-14.233 11.53-25.762 25.763-25.762 8.265 0 15.594 3.906 20.31 9.955zm-9.696 8.815c1.712-5.623 4.684-6.763 6.03-6.763.366 0 1.794.081 1.794 1.63 0 2.85-3.547 4.643-7.824 5.133zm-12.646 6.652c-1.017 5.136-2.934 6.32-4.359 6.32-1.996 0-2.08-2.489-2.08-3.057 0-1.996 1.222-11.366 5.583-11.366 1.464 0 1.917 1.178 1.917 1.953 0 .733-.084 1.141-.245 2.04z"/></g><g><path fill="#fff" d="M26.033 89.427c-3.218 1.787-6.876 2.623-10.53 2.623C6.76 92.05.481 86.088.481 77.265c0-8.86 6.715-14.783 15.141-14.783 3.693 0 7.27.994 9.933 3.698l-2.502 2.623c-1.909-2.068-4.808-3.221-7.669-3.221-6.438 0-11.326 4.85-11.326 11.683 0 6.716 4.728 11.685 11.643 11.685 2.265 0 4.93-.595 6.993-1.627v-8.625h-6.476v-3.101h9.815z"/></g><g><path fill="#fff" d="M29.209 63.197h17.687v3.101H32.549v8.823h13.39v3.097h-13.39v10.016h14.453v3.102H29.209z"/></g><g><path fill="#fff" d="M53.324 66.298h4.687c3.261 0 6.798.595 6.798 4.65 0 4.648-4.807 4.648-8.507 4.648h-2.978zm-3.338 25.038h3.338V78.698h4.292l7.63 12.638h4.093L61.351 78.38c4.373-.678 7.033-3.34 7.033-7.432 0-6.955-5.762-7.75-11.206-7.75h-7.192z"/></g><g><path fill="#fff" d="M89.75 81.321H78.268l5.845-13.83h.079zM70.28 91.336h3.774l2.905-6.914h14.065l2.863 6.914h3.894L85.82 63.197h-3.14z"/></g><g><path fill="#fff" d="M99.151 63.197h3.337v25.037h12.874v3.102h-16.21z"/></g><g><path fill="#fff" d="M121.114 66.298h6.356c6.44 0 11.328 3.258 11.328 10.968 0 7.711-4.889 10.968-11.328 10.968h-6.356zm-3.339 25.038h10.81c5.524 0 13.791-3.699 13.791-14.07 0-10.373-8.267-14.069-13.792-14.069h-10.809z"/></g><g><path fill="#fff" d="M144.654 63.197h18.637v4.531h-13.63v6.915h12.915v4.533h-12.915v7.628h13.636v4.532h-18.643z"/></g><g><path fill="#fff" d="M164.584 63.197h5.763l7.669 21.262 7.908-21.262h5.402l-11.364 28.14h-4.334z"/></g><g><path fill="#fff" d="M192.892 63.197h18.638v4.531H197.9v6.915h12.916v4.533H197.9v7.628h13.636v4.532h-18.645z"/></g></g></svg>