<svg xmlns="http://www.w3.org/2000/svg" width="212" height="67" viewBox="0 0 212 67"><g><g><path fill="#fff" d="M20.166 20.885H9.529l5.317-12.11zm1.544 3.417l3.413 7.5h4.017L14.845.599.553 31.803H4.56l3.417-7.501z"/></g><g><path fill="#fff" d="M31.28.438L53.757 23.98V1.866h3.732v31.165L35.016 9.486v22.316H31.28z"/></g><g><path fill="#fff" d="M70.867 31.802h-3.733V5.282h-7.102V1.867h17.95v3.417h-7.115z"/></g><g><path fill="#fff" d="M106.449 16.837c0 6.829-5.48 12.106-11.956 12.106-6.472 0-11.948-5.277-11.948-12.106 0-6.595 4.924-12.11 11.948-12.11 7.035 0 11.956 5.515 11.956 12.11zm3.733 0c0-8.577-7.107-15.603-15.69-15.603-8.576 0-15.677 7.026-15.677 15.603 0 8.89 7.022 15.602 15.678 15.602 8.652 0 15.689-6.711 15.689-15.602z"/></g><g><path fill="#fff" d="M113.433.438l22.472 23.543V1.866h3.732v31.165L117.169 9.486v22.316h-3.736z"/></g><g><path fill="#fff" d="M51.91 39.42h.992c3.694 0 8.141.555 8.141 5.242 0 4.76-4.136 5.478-7.94 5.478h-1.194zm0 14.055h2.144c5.675 0 10.483-2.423 10.483-8.737 0-5.478-2.857-8.653-12.07-8.653h-4.286v29.932h3.728z"/></g><g><path fill="#fff" d="M81.097 55.102H70.46l5.324-12.108zm1.548 3.418l3.42 7.496h4.01l-14.292-31.2-14.299 31.2h4.018l3.411-7.496z"/></g><g><path fill="#fff" d="M119.85 50.937v1.19c0 8.217-5.794 14.53-14.173 14.53-8.381 0-15.126-7.221-15.126-15.521 0-8.62 6.906-15.69 15.523-15.69 4.643 0 9.255 2.106 12.19 5.798l-2.622 2.503c-2.144-2.937-5.757-4.884-9.407-4.884-6.716 0-11.945 5.44-11.945 12.15 0 6.275 5.16 12.229 11.625 12.229 4.647 0 9.645-4.011 9.806-8.892h-7.738v-3.413z"/></g><g><path fill="#fff" d="M123.542 36.084h16.082v3.415h-12.35v8.379h11.995v3.411h-11.995v11.316h12.35v3.412h-16.082z"/></g><g><path fill="#fff" d="M205.357 12.877v37.706c-.097-.1-18.787-18.793-18.83-18.83.043-.043 18.727-18.779 18.83-18.876zm-4.511-4.53c-.091.093-18.8 18.846-18.835 18.882-.047-.042-18.817-18.817-18.888-18.882zm-53.151-6.395s29.75 29.764 29.799 29.806c-.048.036-24.33 24.38-24.33 24.38l4.529 4.515s24.282-24.337 24.318-24.379c.036.042 29.734 29.734 29.734 29.734V1.952z"/></g></g></svg>